# xmcd CD database file
#
# Track frame offsets:
#	150
#	10725
#	52050
#
# Disc length: 1015 seconds
#
# Revision: 0
# Processed by: cddbd v1.5.1PL0 Copyright (c) Steve Scherf et al.
# Submitted via: CDex 1.51
#
DISCID=1d03f503
DTITLE=C-media records - SYNERGY 1.5
DYEAR=1900
DGENRE=Trance
TTITLE0=cresent (trances state re-mix)
TTITLE1=emotional crisis (incomplete edition)
TTITLE2=็จ -kakeri- version,0.6
EXTD=
EXTT0=
EXTT1=
EXTT2=
PLAYORDER=
